<?xml version="1.0" standalone="no"?>
<!DOCTYPE svg PUBLIC "-//W3C//DTD SVG 20010904//EN"
 "http://www.w3.org/TR/2001/REC-SVG-20010904/DTD/svg10.dtd">
<svg version="1.0" xmlns="http://www.w3.org/2000/svg"
 width="512.000000pt" height="512.000000pt" viewBox="0 0 512.000000 512.000000"
 preserveAspectRatio="xMidYMid meet">

<g transform="translate(0.000000,512.000000) scale(0.100000,-0.100000)"
fill="#000000" stroke="none">
<path d="M2100 4468 c-794 -42 -1516 -526 -1871 -1253 -156 -322 -223 -613
-223 -975 0 -461 124 -868 380 -1251 643 -961 1924 -1270 2934 -709 763 424
1221 1268 1151 2119 -27 318 -96 568 -231 836 l-65 130 -350 5 c-256 4 -356 8
-372 18 -12 7 -35 29 -50 49 l-28 36 -3 348 -3 348 -82 45 c-349 189 -759 277
-1187 254z m369 -604 c282 -42 520 -140 759 -314 34 -25 62 -47 62 -50 0 -3
-47 -52 -105 -110 -81 -80 -108 -102 -119 -95 -205 144 -376 221 -583 261
-131 26 -376 24 -510 -5 -567 -120 -981 -564 -1064 -1142 -15 -107 -7 -333 16
-439 171 -789 976 -1253 1737 -1000 332 111 609 349 768 662 222 435 189 955
-86 1359 l-56 82 108 108 107 108 47 -62 c176 -234 282 -494 321 -794 17 -130
6 -390 -21 -518 -111 -520 -457 -957 -926 -1168 -243 -109 -424 -148 -684
-148 -442 0 -837 160 -1145 466 -243 240 -395 516 -466 844 -30 138 -37 427
-15 571 56 351 212 662 457 909 267 269 580 425 964 480 101 14 320 12 434 -5z
m-39 -751 c41 -8 101 -26 133 -39 64 -26 183 -90 191 -102 3 -5 -43 -57 -102
-115 l-108 -107 -50 24 c-77 37 -163 56 -256 56 -232 0 -433 -127 -532 -335
-44 -90 -59 -159 -58 -260 1 -252 155 -468 398 -557 42 -15 90 -23 165 -26
121 -5 196 10 299 60 89 43 213 168 258 261 79 164 83 345 12 503 l-28 62 110
108 c126 125 111 126 178 -6 147 -291 124 -638 -62 -907 -338 -488 -1030 -525
-1419 -76 -386 446 -235 1141 303 1392 183 86 359 106 568 64z"/>
</g>
</svg>
