<?xml version="1.0" standalone="no"?>
<!DOCTYPE svg PUBLIC "-//W3C//DTD SVG 20010904//EN"
 "http://www.w3.org/TR/2001/REC-SVG-20010904/DTD/svg10.dtd">
<svg version="1.0" xmlns="http://www.w3.org/2000/svg"
 width="222.000000pt" height="227.000000pt" viewBox="0 0 222.000000 227.000000"
 preserveAspectRatio="xMidYMid meet">

<g transform="translate(0.000000,227.000000) scale(0.100000,-0.100000)"
fill="#000000" stroke="none">
<path d="M980 2253 c-153 -25 -313 -121 -422 -252 -48 -57 -113 -187 -133
-266 -17 -69 -20 -230 -4 -307 16 -84 117 -274 269 -513 216 -336 342 -610
390 -843 11 -53 16 -63 32 -60 16 2 25 23 48 113 70 275 154 447 407 840 119
183 205 351 230 445 22 85 22 243 0 330 -81 312 -362 523 -691 519 -56 -1
-112 -4 -126 -6z"/>
</g>
</svg>
