<?xml version="1.0" standalone="no"?>
<!DOCTYPE svg PUBLIC "-//W3C//DTD SVG 20010904//EN"
 "http://www.w3.org/TR/2001/REC-SVG-20010904/DTD/svg10.dtd">
<svg version="1.0" xmlns="http://www.w3.org/2000/svg"
 width="512.000000pt" height="512.000000pt" viewBox="0 0 512.000000 512.000000"
 preserveAspectRatio="xMidYMid meet">

<g transform="translate(0.000000,512.000000) scale(0.100000,-0.100000)"
fill="#000000" stroke="none">
<path d="M588 5099 c-23 -12 -46 -35 -58 -59 -20 -39 -20 -54 -20 -2480 0
-2427 0 -2441 20 -2480 13 -26 34 -47 60 -60 39 -20 55 -20 1970 -20 1915 0
1931 0 1970 20 26 13 47 34 60 60 20 39 20 55 20 1733 l0 1693 -29 45 c-38 58
-1517 1532 -1558 1553 -29 14 -150 16 -1215 16 -1158 -1 -1184 -1 -1220 -21z
m3014 -986 l708 -708 0 -1552 0 -1553 -1750 0 -1750 0 0 2260 0 2260 1042 0
1043 0 707 -707z"/>
<path d="M2488 3189 c-69 -36 -78 -70 -78 -289 l0 -190 -190 0 c-221 0 -254
-9 -290 -80 -25 -50 -25 -90 0 -140 36 -71 69 -80 290 -80 l190 0 0 -190 c0
-221 9 -254 80 -290 50 -25 90 -25 140 0 71 36 80 69 80 290 l0 190 190 0
c171 0 195 2 230 20 45 23 80 80 80 130 0 50 -35 107 -80 130 -35 18 -59 20
-230 20 l-190 0 0 190 c0 171 -2 195 -20 230 -37 73 -127 99 -202 59z"/>
</g>
</svg>
