<?xml version="1.0" standalone="no"?>
<!DOCTYPE svg PUBLIC "-//W3C//DTD SVG 20010904//EN"
 "http://www.w3.org/TR/2001/REC-SVG-20010904/DTD/svg10.dtd">
<svg version="1.0" xmlns="http://www.w3.org/2000/svg"
 width="200.000000pt" height="200.000000pt" viewBox="0 0 200.000000 200.000000"
 preserveAspectRatio="xMidYMid meet">

<g transform="translate(0.000000,200.000000) scale(0.100000,-0.100000)"
fill="#000000" stroke="none">
<path d="M858 1689 c-15 -8 -18 -24 -18 -79 l0 -70 -93 0 c-117 0 -127 -8
-127 -98 l0 -62 -165 0 c-163 0 -166 0 -190 -25 l-25 -24 0 -465 0 -465 26
-20 c26 -21 35 -21 630 -21 591 0 604 0 624 20 18 18 20 33 20 180 l0 160 40
0 c68 0 80 22 80 140 l0 100 40 0 c29 0 42 5 50 19 15 29 14 693 -2 709 -16
16 -864 17 -890 1z m842 -349 c0 -293 0 -300 -20 -300 -19 0 -20 7 -20 232 0
201 -2 234 -17 250 -15 17 -40 18 -370 18 l-353 0 0 50 0 50 390 0 390 0 0
-300z m-120 -210 c0 -323 0 -330 -20 -330 -20 0 -20 7 -20 267 0 260 -1 267
-22 290 l-21 23 -399 0 -398 0 0 40 0 40 440 0 440 0 0 -330z m-140 -260 l0
-410 -540 0 -540 0 0 410 0 410 540 0 540 0 0 -410z"/>
<path d="M551 1126 c-87 -48 -50 -186 49 -186 51 0 100 49 100 99 0 75 -83
124 -149 87z"/>
<path d="M1003 818 c-49 -57 -102 -116 -116 -133 l-27 -30 -82 88 -83 88 -133
-156 -132 -155 465 0 c370 0 465 3 459 13 -15 25 -247 372 -254 380 -4 4 -47
-38 -97 -95z"/>
</g>
</svg>
